mtllib ShadowrunJungleMap.mtl
v 0.000 -0.400 0.000
v 100.000 -0.400 0.000
v 100.000 -0.400 25.000
v 0.000 -0.400 25.000
v 0.000 0.400 0.000
v 100.000 0.400 0.000
v 100.000 0.400 25.000
v 0.000 0.400 25.000
v 0.000 -0.400 25.000
v 100.000 -0.400 25.000
v 100.000 -0.400 52.000
v 0.000 -0.400 52.000
v 0.000 0.400 25.000
v 100.000 0.400 25.000
v 100.000 0.400 52.000
v 0.000 0.400 52.000
v 0.000 -0.400 52.000
v 100.000 -0.400 52.000
v 100.000 -0.400 80.000
v 0.000 -0.400 80.000
v 0.000 0.400 52.000
v 100.000 0.400 52.000
v 100.000 0.400 80.000
v 0.000 0.400 80.000
v 0.000 -0.400 80.000
v 100.000 -0.400 80.000
v 100.000 -0.400 112.000
v 0.000 -0.400 112.000
v 0.000 0.400 80.000
v 100.000 0.400 80.000
v 100.000 0.400 112.000
v 0.000 0.400 112.000
v 0.000 -0.400 112.000
v 100.000 -0.400 112.000
v 100.000 -0.400 150.000
v 0.000 -0.400 150.000
v 0.000 0.400 112.000
v 100.000 0.400 112.000
v 100.000 0.400 150.000
v 0.000 0.400 150.000
v 46.605 0.550 13.151
v 53.395 0.550 14.849
v 51.395 0.550 22.849
v 44.605 0.550 21.151
v 45.032 0.550 23.855
v 50.968 0.550 20.145
v 55.968 0.550 28.145
v 50.032 0.550 31.855
v 50.088 0.550 28.059
v 55.912 0.550 31.941
v 49.912 0.550 40.941
v 44.088 0.550 37.059
v 43.802 0.550 40.421
v 50.198 0.550 37.579
v 54.198 0.550 46.579
v 47.802 0.550 49.421
v 47.802 0.550 49.421
v 54.198 0.550 46.579
v 58.198 0.550 55.579
v 51.802 0.550 58.421
v 51.568 0.550 56.314
v 58.432 0.550 57.686
v 56.432 0.550 67.686
v 49.568 0.550 66.314
v 49.940 0.550 68.700
v 56.060 0.550 65.300
v 61.060 0.550 74.300
v 54.940 0.550 77.700
v 54.802 0.550 74.579
v 61.198 0.550 77.421
v 57.198 0.550 86.421
v 50.802 0.550 83.579
v 50.870 0.550 86.565
v 57.130 0.550 83.435
v 62.130 0.550 93.435
v 55.870 0.550 96.565
v 55.802 0.550 93.579
v 62.198 0.550 96.421
v 58.198 0.550 105.421
v 51.802 0.550 102.579
v 52.088 0.550 105.941
v 57.912 0.550 102.059
v 63.912 0.550 111.059
v 58.088 0.550 114.941
v 57.517 0.550 112.652
v 64.483 0.550 113.348
v 63.483 0.550 123.348
v 56.517 0.550 122.652
v 56.802 0.550 124.421
v 63.198 0.550 121.579
v 67.198 0.550 130.579
v 60.802 0.550 133.421
v 60.583 0.550 131.241
v 67.417 0.550 132.759
v 65.417 0.550 141.759
v 58.583 0.550 140.241
v 67.528 0.350 49.764
v 76.472 0.350 54.236
v 72.472 0.350 62.236
v 63.528 0.350 57.764
v 63.629 0.350 62.428
v 72.371 0.350 57.572
v 77.371 0.350 66.572
v 68.629 0.350 71.428
v 68.257 0.350 67.419
v 77.743 0.350 70.581
v 74.743 0.350 79.581
v 65.257 0.350 76.419
v 65.528 0.350 80.236
v 74.472 0.350 75.764
v 79.472 0.350 85.764
v 70.528 0.350 90.236
v 70.358 0.350 86.143
v 79.642 0.350 89.857
v 75.642 0.350 99.857
v 66.358 0.350 96.143
v 66.528 0.350 100.236
v 75.472 0.350 95.764
v 80.472 0.350 105.764
v 71.528 0.350 110.236
v 71.257 0.350 106.419
v 80.743 0.350 109.581
v 76.743 0.350 121.581
v 67.257 0.350 118.419
v 67.068 0.350 120.822
v 76.932 0.350 119.178
v 81.932 0.350 149.178
v 72.068 0.350 150.822
v 57.500 1.050 56.000
v 74.500 1.050 56.000
v 74.500 1.050 60.000
v 57.500 1.050 60.000
v 57.500 1.750 56.000
v 74.500 1.750 56.000
v 74.500 1.750 60.000
v 57.500 1.750 60.000
v 57.500 1.050 119.000
v 74.500 1.050 119.000
v 74.500 1.050 123.000
v 57.500 1.050 123.000
v 57.500 1.750 119.000
v 74.500 1.750 119.000
v 74.500 1.750 123.000
v 57.500 1.750 123.000
v 38.000 0.100 1.000
v 62.000 0.100 1.000
v 62.000 0.100 15.000
v 38.000 0.100 15.000
v 38.000 3.100 1.000
v 62.000 3.100 1.000
v 62.000 3.100 15.000
v 38.000 3.100 15.000
v 28.000 0.500 140.000
v 72.000 0.500 140.000
v 72.000 0.500 148.000
v 28.000 0.500 148.000
v 28.000 5.500 140.000
v 72.000 5.500 140.000
v 72.000 5.500 148.000
v 28.000 5.500 148.000
v 41.600 1.500 143.400
v 42.400 1.500 143.400
v 42.400 1.500 144.600
v 41.600 1.500 144.600
v 41.600 10.500 143.400
v 42.400 10.500 143.400
v 42.400 10.500 144.600
v 41.600 10.500 144.600
v 47.600 1.500 143.400
v 48.400 1.500 143.400
v 48.400 1.500 144.600
v 47.600 1.500 144.600
v 47.600 10.500 143.400
v 48.400 10.500 143.400
v 48.400 10.500 144.600
v 47.600 10.500 144.600
v 53.600 1.500 143.400
v 54.400 1.500 143.400
v 54.400 1.500 144.600
v 53.600 1.500 144.600
v 53.600 10.500 143.400
v 54.400 10.500 143.400
v 54.400 10.500 144.600
v 53.600 10.500 144.600
v 59.600 1.500 143.400
v 60.400 1.500 143.400
v 60.400 1.500 144.600
v 59.600 1.500 144.600
v 59.600 10.500 143.400
v 60.400 10.500 143.400
v 60.400 10.500 144.600
v 59.600 10.500 144.600
v 65.600 1.500 143.400
v 66.400 1.500 143.400
v 66.400 1.500 144.600
v 65.600 1.500 144.600
v 65.600 10.500 143.400
v 66.400 10.500 143.400
v 66.400 10.500 144.600
v 65.600 10.500 144.600
v 71.600 1.500 143.400
v 72.400 1.500 143.400
v 72.400 1.500 144.600
v 71.600 1.500 144.600
v 71.600 10.500 143.400
v 72.400 10.500 143.400
v 72.400 10.500 144.600
v 71.600 10.500 144.600
v 77.600 1.500 143.400
v 78.400 1.500 143.400
v 78.400 1.500 144.600
v 77.600 1.500 144.600
v 77.600 10.500 143.400
v 78.400 10.500 143.400
v 78.400 10.500 144.600
v 77.600 10.500 144.600
v 55.000 0.000 93.000
v 63.000 0.000 93.000
v 63.000 0.000 99.000
v 55.000 0.000 99.000
v 55.000 2.400 93.000
v 63.000 2.400 93.000
v 63.000 2.400 99.000
v 55.000 2.400 99.000
v 61.200 2.400 96.000
v 61.200 5.900 96.000
v 60.905 2.400 97.100
v 60.905 5.900 97.100
v 60.100 2.400 97.905
v 60.100 5.900 97.905
v 59.000 2.400 98.200
v 59.000 5.900 98.200
v 57.900 2.400 97.905
v 57.900 5.900 97.905
v 57.095 2.400 97.100
v 57.095 5.900 97.100
v 56.800 2.400 96.000
v 56.800 5.900 96.000
v 57.095 2.400 94.900
v 57.095 5.900 94.900
v 57.900 2.400 94.095
v 57.900 5.900 94.095
v 59.000 2.400 93.800
v 59.000 5.900 93.800
v 60.100 2.400 94.095
v 60.100 5.900 94.095
v 60.905 2.400 94.900
v 60.905 5.900 94.900
v 54.300 0.800 49.000
v 54.300 3.800 49.000
v 54.126 0.800 49.650
v 54.126 3.800 49.650
v 53.650 0.800 50.126
v 53.650 3.800 50.126
v 53.000 0.800 50.300
v 53.000 3.800 50.300
v 52.350 0.800 50.126
v 52.350 3.800 50.126
v 51.874 0.800 49.650
v 51.874 3.800 49.650
v 51.700 0.800 49.000
v 51.700 3.800 49.000
v 51.874 0.800 48.350
v 51.874 3.800 48.350
v 52.350 0.800 47.874
v 52.350 3.800 47.874
v 53.000 0.800 47.700
v 53.000 3.800 47.700
v 53.650 0.800 47.874
v 53.650 3.800 47.874
v 54.126 0.800 48.350
v 54.126 3.800 48.350
v 55.000 3.800 49.000
v 55.000 4.050 49.000
v 54.732 3.800 50.000
v 54.732 4.050 50.000
v 54.000 3.800 50.732
v 54.000 4.050 50.732
v 53.000 3.800 51.000
v 53.000 4.050 51.000
v 52.000 3.800 50.732
v 52.000 4.050 50.732
v 51.268 3.800 50.000
v 51.268 4.050 50.000
v 51.000 3.800 49.000
v 51.000 4.050 49.000
v 51.268 3.800 48.000
v 51.268 4.050 48.000
v 52.000 3.800 47.268
v 52.000 4.050 47.268
v 53.000 3.800 47.000
v 53.000 4.050 47.000
v 54.000 3.800 47.268
v 54.000 4.050 47.268
v 54.732 3.800 48.000
v 54.732 4.050 48.000
v 59.300 0.800 78.000
v 59.300 3.800 78.000
v 59.126 0.800 78.650
v 59.126 3.800 78.650
v 58.650 0.800 79.126
v 58.650 3.800 79.126
v 58.000 0.800 79.300
v 58.000 3.800 79.300
v 57.350 0.800 79.126
v 57.350 3.800 79.126
v 56.874 0.800 78.650
v 56.874 3.800 78.650
v 56.700 0.800 78.000
v 56.700 3.800 78.000
v 56.874 0.800 77.350
v 56.874 3.800 77.350
v 57.350 0.800 76.874
v 57.350 3.800 76.874
v 58.000 0.800 76.700
v 58.000 3.800 76.700
v 58.650 0.800 76.874
v 58.650 3.800 76.874
v 59.126 0.800 77.350
v 59.126 3.800 77.350
v 60.000 3.800 78.000
v 60.000 4.050 78.000
v 59.732 3.800 79.000
v 59.732 4.050 79.000
v 59.000 3.800 79.732
v 59.000 4.050 79.732
v 58.000 3.800 80.000
v 58.000 4.050 80.000
v 57.000 3.800 79.732
v 57.000 4.050 79.732
v 56.268 3.800 79.000
v 56.268 4.050 79.000
v 56.000 3.800 78.000
v 56.000 4.050 78.000
v 56.268 3.800 77.000
v 56.268 4.050 77.000
v 57.000 3.800 76.268
v 57.000 4.050 76.268
v 58.000 3.800 76.000
v 58.000 4.050 76.000
v 59.000 3.800 76.268
v 59.000 4.050 76.268
v 59.732 3.800 77.000
v 59.732 4.050 77.000
v 62.300 0.800 115.000
v 62.300 3.800 115.000
v 62.126 0.800 115.650
v 62.126 3.800 115.650
v 61.650 0.800 116.126
v 61.650 3.800 116.126
v 61.000 0.800 116.300
v 61.000 3.800 116.300
v 60.350 0.800 116.126
v 60.350 3.800 116.126
v 59.874 0.800 115.650
v 59.874 3.800 115.650
v 59.700 0.800 115.000
v 59.700 3.800 115.000
v 59.874 0.800 114.350
v 59.874 3.800 114.350
v 60.350 0.800 113.874
v 60.350 3.800 113.874
v 61.000 0.800 113.700
v 61.000 3.800 113.700
v 61.650 0.800 113.874
v 61.650 3.800 113.874
v 62.126 0.800 114.350
v 62.126 3.800 114.350
v 63.000 3.800 115.000
v 63.000 4.050 115.000
v 62.732 3.800 116.000
v 62.732 4.050 116.000
v 62.000 3.800 116.732
v 62.000 4.050 116.732
v 61.000 3.800 117.000
v 61.000 4.050 117.000
v 60.000 3.800 116.732
v 60.000 4.050 116.732
v 59.268 3.800 116.000
v 59.268 4.050 116.000
v 59.000 3.800 115.000
v 59.000 4.050 115.000
v 59.268 3.800 114.000
v 59.268 4.050 114.000
v 60.000 3.800 113.268
v 60.000 4.050 113.268
v 61.000 3.800 113.000
v 61.000 4.050 113.000
v 62.000 3.800 113.268
v 62.000 4.050 113.268
v 62.732 3.800 114.000
v 62.732 4.050 114.000
v 43.000 0.775 30.000
v 51.000 0.775 30.000
v 51.000 0.775 34.000
v 43.000 0.775 34.000
v 43.000 1.025 30.000
v 51.000 1.025 30.000
v 51.000 1.025 34.000
v 43.000 1.025 34.000
v 54.000 0.775 89.000
v 62.000 0.775 89.000
v 62.000 0.775 93.000
v 54.000 0.775 93.000
v 54.000 1.025 89.000
v 62.000 1.025 89.000
v 62.000 1.025 93.000
v 54.000 1.025 93.000
v 46.000 0.775 116.000
v 54.000 0.775 116.000
v 54.000 0.775 120.000
v 46.000 0.775 120.000
v 46.000 1.025 116.000
v 54.000 1.025 116.000
v 54.000 1.025 120.000
v 46.000 1.025 120.000
v 53.450 0.700 44.000
v 53.450 2.300 44.000
v 53.390 0.700 44.225
v 53.390 2.300 44.225
v 53.225 0.700 44.390
v 53.225 2.300 44.390
v 53.000 0.700 44.450
v 53.000 2.300 44.450
v 52.775 0.700 44.390
v 52.775 2.300 44.390
v 52.610 0.700 44.225
v 52.610 2.300 44.225
v 52.550 0.700 44.000
v 52.550 2.300 44.000
v 52.610 0.700 43.775
v 52.610 2.300 43.775
v 52.775 0.700 43.610
v 52.775 2.300 43.610
v 53.000 0.700 43.550
v 53.000 2.300 43.550
v 53.225 0.700 43.610
v 53.225 2.300 43.610
v 53.390 0.700 43.775
v 53.390 2.300 43.775
v 61.450 0.700 44.000
v 61.450 2.300 44.000
v 61.390 0.700 44.225
v 61.390 2.300 44.225
v 61.225 0.700 44.390
v 61.225 2.300 44.390
v 61.000 0.700 44.450
v 61.000 2.300 44.450
v 60.775 0.700 44.390
v 60.775 2.300 44.390
v 60.610 0.700 44.225
v 60.610 2.300 44.225
v 60.550 0.700 44.000
v 60.550 2.300 44.000
v 60.610 0.700 43.775
v 60.610 2.300 43.775
v 60.775 0.700 43.610
v 60.775 2.300 43.610
v 61.000 0.700 43.550
v 61.000 2.300 43.550
v 61.225 0.700 43.610
v 61.225 2.300 43.610
v 61.390 0.700 43.775
v 61.390 2.300 43.775
v 46.450 0.700 70.000
v 46.450 2.300 70.000
v 46.390 0.700 70.225
v 46.390 2.300 70.225
v 46.225 0.700 70.390
v 46.225 2.300 70.390
v 46.000 0.700 70.450
v 46.000 2.300 70.450
v 45.775 0.700 70.390
v 45.775 2.300 70.390
v 45.610 0.700 70.225
v 45.610 2.300 70.225
v 45.550 0.700 70.000
v 45.550 2.300 70.000
v 45.610 0.700 69.775
v 45.610 2.300 69.775
v 45.775 0.700 69.610
v 45.775 2.300 69.610
v 46.000 0.700 69.550
v 46.000 2.300 69.550
v 46.225 0.700 69.610
v 46.225 2.300 69.610
v 46.390 0.700 69.775
v 46.390 2.300 69.775
v 54.450 0.700 70.000
v 54.450 2.300 70.000
v 54.390 0.700 70.225
v 54.390 2.300 70.225
v 54.225 0.700 70.390
v 54.225 2.300 70.390
v 54.000 0.700 70.450
v 54.000 2.300 70.450
v 53.775 0.700 70.390
v 53.775 2.300 70.390
v 53.610 0.700 70.225
v 53.610 2.300 70.225
v 53.550 0.700 70.000
v 53.550 2.300 70.000
v 53.610 0.700 69.775
v 53.610 2.300 69.775
v 53.775 0.700 69.610
v 53.775 2.300 69.610
v 54.000 0.700 69.550
v 54.000 2.300 69.550
v 54.225 0.700 69.610
v 54.225 2.300 69.610
v 54.390 0.700 69.775
v 54.390 2.300 69.775
v 54.450 0.700 110.000
v 54.450 2.300 110.000
v 54.390 0.700 110.225
v 54.390 2.300 110.225
v 54.225 0.700 110.390
v 54.225 2.300 110.390
v 54.000 0.700 110.450
v 54.000 2.300 110.450
v 53.775 0.700 110.390
v 53.775 2.300 110.390
v 53.610 0.700 110.225
v 53.610 2.300 110.225
v 53.550 0.700 110.000
v 53.550 2.300 110.000
v 53.610 0.700 109.775
v 53.610 2.300 109.775
v 53.775 0.700 109.610
v 53.775 2.300 109.610
v 54.000 0.700 109.550
v 54.000 2.300 109.550
v 54.225 0.700 109.610
v 54.225 2.300 109.610
v 54.390 0.700 109.775
v 54.390 2.300 109.775
v 62.450 0.700 110.000
v 62.450 2.300 110.000
v 62.390 0.700 110.225
v 62.390 2.300 110.225
v 62.225 0.700 110.390
v 62.225 2.300 110.390
v 62.000 0.700 110.450
v 62.000 2.300 110.450
v 61.775 0.700 110.390
v 61.775 2.300 110.390
v 61.610 0.700 110.225
v 61.610 2.300 110.225
v 61.550 0.700 110.000
v 61.550 2.300 110.000
v 61.610 0.700 109.775
v 61.610 2.300 109.775
v 61.775 0.700 109.610
v 61.775 2.300 109.610
v 62.000 0.700 109.550
v 62.000 2.300 109.550
v 62.225 0.700 109.610
v 62.225 2.300 109.610
v 62.390 0.700 109.775
v 62.390 2.300 109.775
v 38.500 1.700 51.500
v 49.500 1.700 51.500
v 49.500 1.700 52.500
v 38.500 1.700 52.500
v 38.500 2.700 51.500
v 49.500 2.700 51.500
v 49.500 2.700 52.500
v 38.500 2.700 52.500
v 56.500 1.700 101.500
v 67.500 1.700 101.500
v 67.500 1.700 102.500
v 56.500 1.700 102.500
v 56.500 2.700 101.500
v 67.500 2.700 101.500
v 67.500 2.700 102.500
v 56.500 2.700 102.500
v 53.000 0.000 126.000
v 71.000 0.000 126.000
v 71.000 0.000 144.000
v 53.000 0.000 144.000
v 53.000 1.500 126.000
v 71.000 1.500 126.000
v 71.000 1.500 144.000
v 53.000 1.500 144.000
v 64.100 1.600 135.000
v 64.100 4.600 135.000
v 63.819 1.600 136.050
v 63.819 4.600 136.050
v 63.050 1.600 136.819
v 63.050 4.600 136.819
v 62.000 1.600 137.100
v 62.000 4.600 137.100
v 60.950 1.600 136.819
v 60.950 4.600 136.819
v 60.181 1.600 136.050
v 60.181 4.600 136.050
v 59.900 1.600 135.000
v 59.900 4.600 135.000
v 60.181 1.600 133.950
v 60.181 4.600 133.950
v 60.950 1.600 133.181
v 60.950 4.600 133.181
v 62.000 1.600 132.900
v 62.000 4.600 132.900
v 63.050 1.600 133.181
v 63.050 4.600 133.181
v 63.819 1.600 133.950
v 63.819 4.600 133.950
v 10.000 0.800 20.000
v 10.000 5.800 20.000
v 9.732 0.800 21.000
v 9.732 5.800 21.000
v 9.000 0.800 21.732
v 9.000 5.800 21.732
v 8.000 0.800 22.000
v 8.000 5.800 22.000
v 7.000 0.800 21.732
v 7.000 5.800 21.732
v 6.268 0.800 21.000
v 6.268 5.800 21.000
v 6.000 0.800 20.000
v 6.000 5.800 20.000
v 6.268 0.800 19.000
v 6.268 5.800 19.000
v 7.000 0.800 18.268
v 7.000 5.800 18.268
v 8.000 0.800 18.000
v 8.000 5.800 18.000
v 9.000 0.800 18.268
v 9.000 5.800 18.268
v 9.732 0.800 19.000
v 9.732 5.800 19.000
v 11.200 5.800 20.000
v 11.200 7.000 20.000
v 10.771 5.800 21.600
v 10.771 7.000 21.600
v 9.600 5.800 22.771
v 9.600 7.000 22.771
v 8.000 5.800 23.200
v 8.000 7.000 23.200
v 6.400 5.800 22.771
v 6.400 7.000 22.771
v 5.229 5.800 21.600
v 5.229 7.000 21.600
v 4.800 5.800 20.000
v 4.800 7.000 20.000
v 5.229 5.800 18.400
v 5.229 7.000 18.400
v 6.400 5.800 17.229
v 6.400 7.000 17.229
v 8.000 5.800 16.800
v 8.000 7.000 16.800
v 9.600 5.800 17.229
v 9.600 7.000 17.229
v 10.771 5.800 18.400
v 10.771 7.000 18.400
v 20.000 0.800 38.000
v 20.000 5.800 38.000
v 19.732 0.800 39.000
v 19.732 5.800 39.000
v 19.000 0.800 39.732
v 19.000 5.800 39.732
v 18.000 0.800 40.000
v 18.000 5.800 40.000
v 17.000 0.800 39.732
v 17.000 5.800 39.732
v 16.268 0.800 39.000
v 16.268 5.800 39.000
v 16.000 0.800 38.000
v 16.000 5.800 38.000
v 16.268 0.800 37.000
v 16.268 5.800 37.000
v 17.000 0.800 36.268
v 17.000 5.800 36.268
v 18.000 0.800 36.000
v 18.000 5.800 36.000
v 19.000 0.800 36.268
v 19.000 5.800 36.268
v 19.732 0.800 37.000
v 19.732 5.800 37.000
v 21.200 5.800 38.000
v 21.200 7.000 38.000
v 20.771 5.800 39.600
v 20.771 7.000 39.600
v 19.600 5.800 40.771
v 19.600 7.000 40.771
v 18.000 5.800 41.200
v 18.000 7.000 41.200
v 16.400 5.800 40.771
v 16.400 7.000 40.771
v 15.229 5.800 39.600
v 15.229 7.000 39.600
v 14.800 5.800 38.000
v 14.800 7.000 38.000
v 15.229 5.800 36.400
v 15.229 7.000 36.400
v 16.400 5.800 35.229
v 16.400 7.000 35.229
v 18.000 5.800 34.800
v 18.000 7.000 34.800
v 19.600 5.800 35.229
v 19.600 7.000 35.229
v 20.771 5.800 36.400
v 20.771 7.000 36.400
v 12.000 0.800 62.000
v 12.000 5.800 62.000
v 11.732 0.800 63.000
v 11.732 5.800 63.000
v 11.000 0.800 63.732
v 11.000 5.800 63.732
v 10.000 0.800 64.000
v 10.000 5.800 64.000
v 9.000 0.800 63.732
v 9.000 5.800 63.732
v 8.268 0.800 63.000
v 8.268 5.800 63.000
v 8.000 0.800 62.000
v 8.000 5.800 62.000
v 8.268 0.800 61.000
v 8.268 5.800 61.000
v 9.000 0.800 60.268
v 9.000 5.800 60.268
v 10.000 0.800 60.000
v 10.000 5.800 60.000
v 11.000 0.800 60.268
v 11.000 5.800 60.268
v 11.732 0.800 61.000
v 11.732 5.800 61.000
v 13.200 5.800 62.000
v 13.200 7.000 62.000
v 12.771 5.800 63.600
v 12.771 7.000 63.600
v 11.600 5.800 64.771
v 11.600 7.000 64.771
v 10.000 5.800 65.200
v 10.000 7.000 65.200
v 8.400 5.800 64.771
v 8.400 7.000 64.771
v 7.229 5.800 63.600
v 7.229 7.000 63.600
v 6.800 5.800 62.000
v 6.800 7.000 62.000
v 7.229 5.800 60.400
v 7.229 7.000 60.400
v 8.400 5.800 59.229
v 8.400 7.000 59.229
v 10.000 5.800 58.800
v 10.000 7.000 58.800
v 11.600 5.800 59.229
v 11.600 7.000 59.229
v 12.771 5.800 60.400
v 12.771 7.000 60.400
v 26.000 0.800 102.000
v 26.000 5.800 102.000
v 25.732 0.800 103.000
v 25.732 5.800 103.000
v 25.000 0.800 103.732
v 25.000 5.800 103.732
v 24.000 0.800 104.000
v 24.000 5.800 104.000
v 23.000 0.800 103.732
v 23.000 5.800 103.732
v 22.268 0.800 103.000
v 22.268 5.800 103.000
v 22.000 0.800 102.000
v 22.000 5.800 102.000
v 22.268 0.800 101.000
v 22.268 5.800 101.000
v 23.000 0.800 100.268
v 23.000 5.800 100.268
v 24.000 0.800 100.000
v 24.000 5.800 100.000
v 25.000 0.800 100.268
v 25.000 5.800 100.268
v 25.732 0.800 101.000
v 25.732 5.800 101.000
v 27.200 5.800 102.000
v 27.200 7.000 102.000
v 26.771 5.800 103.600
v 26.771 7.000 103.600
v 25.600 5.800 104.771
v 25.600 7.000 104.771
v 24.000 5.800 105.200
v 24.000 7.000 105.200
v 22.400 5.800 104.771
v 22.400 7.000 104.771
v 21.229 5.800 103.600
v 21.229 7.000 103.600
v 20.800 5.800 102.000
v 20.800 7.000 102.000
v 21.229 5.800 100.400
v 21.229 7.000 100.400
v 22.400 5.800 99.229
v 22.400 7.000 99.229
v 24.000 5.800 98.800
v 24.000 7.000 98.800
v 25.600 5.800 99.229
v 25.600 7.000 99.229
v 26.771 5.800 100.400
v 26.771 7.000 100.400
v 92.000 0.800 28.000
v 92.000 5.800 28.000
v 91.732 0.800 29.000
v 91.732 5.800 29.000
v 91.000 0.800 29.732
v 91.000 5.800 29.732
v 90.000 0.800 30.000
v 90.000 5.800 30.000
v 89.000 0.800 29.732
v 89.000 5.800 29.732
v 88.268 0.800 29.000
v 88.268 5.800 29.000
v 88.000 0.800 28.000
v 88.000 5.800 28.000
v 88.268 0.800 27.000
v 88.268 5.800 27.000
v 89.000 0.800 26.268
v 89.000 5.800 26.268
v 90.000 0.800 26.000
v 90.000 5.800 26.000
v 91.000 0.800 26.268
v 91.000 5.800 26.268
v 91.732 0.800 27.000
v 91.732 5.800 27.000
v 93.200 5.800 28.000
v 93.200 7.000 28.000
v 92.771 5.800 29.600
v 92.771 7.000 29.600
v 91.600 5.800 30.771
v 91.600 7.000 30.771
v 90.000 5.800 31.200
v 90.000 7.000 31.200
v 88.400 5.800 30.771
v 88.400 7.000 30.771
v 87.229 5.800 29.600
v 87.229 7.000 29.600
v 86.800 5.800 28.000
v 86.800 7.000 28.000
v 87.229 5.800 26.400
v 87.229 7.000 26.400
v 88.400 5.800 25.229
v 88.400 7.000 25.229
v 90.000 5.800 24.800
v 90.000 7.000 24.800
v 91.600 5.800 25.229
v 91.600 7.000 25.229
v 92.771 5.800 26.400
v 92.771 7.000 26.400
v 87.000 0.800 48.000
v 87.000 5.800 48.000
v 86.732 0.800 49.000
v 86.732 5.800 49.000
v 86.000 0.800 49.732
v 86.000 5.800 49.732
v 85.000 0.800 50.000
v 85.000 5.800 50.000
v 84.000 0.800 49.732
v 84.000 5.800 49.732
v 83.268 0.800 49.000
v 83.268 5.800 49.000
v 83.000 0.800 48.000
v 83.000 5.800 48.000
v 83.268 0.800 47.000
v 83.268 5.800 47.000
v 84.000 0.800 46.268
v 84.000 5.800 46.268
v 85.000 0.800 46.000
v 85.000 5.800 46.000
v 86.000 0.800 46.268
v 86.000 5.800 46.268
v 86.732 0.800 47.000
v 86.732 5.800 47.000
v 88.200 5.800 48.000
v 88.200 7.000 48.000
v 87.771 5.800 49.600
v 87.771 7.000 49.600
v 86.600 5.800 50.771
v 86.600 7.000 50.771
v 85.000 5.800 51.200
v 85.000 7.000 51.200
v 83.400 5.800 50.771
v 83.400 7.000 50.771
v 82.229 5.800 49.600
v 82.229 7.000 49.600
v 81.800 5.800 48.000
v 81.800 7.000 48.000
v 82.229 5.800 46.400
v 82.229 7.000 46.400
v 83.400 5.800 45.229
v 83.400 7.000 45.229
v 85.000 5.800 44.800
v 85.000 7.000 44.800
v 86.600 5.800 45.229
v 86.600 7.000 45.229
v 87.771 5.800 46.400
v 87.771 7.000 46.400
v 94.000 0.800 76.000
v 94.000 5.800 76.000
v 93.732 0.800 77.000
v 93.732 5.800 77.000
v 93.000 0.800 77.732
v 93.000 5.800 77.732
v 92.000 0.800 78.000
v 92.000 5.800 78.000
v 91.000 0.800 77.732
v 91.000 5.800 77.732
v 90.268 0.800 77.000
v 90.268 5.800 77.000
v 90.000 0.800 76.000
v 90.000 5.800 76.000
v 90.268 0.800 75.000
v 90.268 5.800 75.000
v 91.000 0.800 74.268
v 91.000 5.800 74.268
v 92.000 0.800 74.000
v 92.000 5.800 74.000
v 93.000 0.800 74.268
v 93.000 5.800 74.268
v 93.732 0.800 75.000
v 93.732 5.800 75.000
v 95.200 5.800 76.000
v 95.200 7.000 76.000
v 94.771 5.800 77.600
v 94.771 7.000 77.600
v 93.600 5.800 78.771
v 93.600 7.000 78.771
v 92.000 5.800 79.200
v 92.000 7.000 79.200
v 90.400 5.800 78.771
v 90.400 7.000 78.771
v 89.229 5.800 77.600
v 89.229 7.000 77.600
v 88.800 5.800 76.000
v 88.800 7.000 76.000
v 89.229 5.800 74.400
v 89.229 7.000 74.400
v 90.400 5.800 73.229
v 90.400 7.000 73.229
v 92.000 5.800 72.800
v 92.000 7.000 72.800
v 93.600 5.800 73.229
v 93.600 7.000 73.229
v 94.771 5.800 74.400
v 94.771 7.000 74.400
v 30.000 0.800 126.000
v 30.000 5.800 126.000
v 29.732 0.800 127.000
v 29.732 5.800 127.000
v 29.000 0.800 127.732
v 29.000 5.800 127.732
v 28.000 0.800 128.000
v 28.000 5.800 128.000
v 27.000 0.800 127.732
v 27.000 5.800 127.732
v 26.268 0.800 127.000
v 26.268 5.800 127.000
v 26.000 0.800 126.000
v 26.000 5.800 126.000
v 26.268 0.800 125.000
v 26.268 5.800 125.000
v 27.000 0.800 124.268
v 27.000 5.800 124.268
v 28.000 0.800 124.000
v 28.000 5.800 124.000
v 29.000 0.800 124.268
v 29.000 5.800 124.268
v 29.732 0.800 125.000
v 29.732 5.800 125.000
v 31.200 5.800 126.000
v 31.200 7.000 126.000
v 30.771 5.800 127.600
v 30.771 7.000 127.600
v 29.600 5.800 128.771
v 29.600 7.000 128.771
v 28.000 5.800 129.200
v 28.000 7.000 129.200
v 26.400 5.800 128.771
v 26.400 7.000 128.771
v 25.229 5.800 127.600
v 25.229 7.000 127.600
v 24.800 5.800 126.000
v 24.800 7.000 126.000
v 25.229 5.800 124.400
v 25.229 7.000 124.400
v 26.400 5.800 123.229
v 26.400 7.000 123.229
v 28.000 5.800 122.800
v 28.000 7.000 122.800
v 29.600 5.800 123.229
v 29.600 7.000 123.229
v 30.771 5.800 124.400
v 30.771 7.000 124.400
v 90.000 0.800 127.000
v 90.000 5.800 127.000
v 89.732 0.800 128.000
v 89.732 5.800 128.000
v 89.000 0.800 128.732
v 89.000 5.800 128.732
v 88.000 0.800 129.000
v 88.000 5.800 129.000
v 87.000 0.800 128.732
v 87.000 5.800 128.732
v 86.268 0.800 128.000
v 86.268 5.800 128.000
v 86.000 0.800 127.000
v 86.000 5.800 127.000
v 86.268 0.800 126.000
v 86.268 5.800 126.000
v 87.000 0.800 125.268
v 87.000 5.800 125.268
v 88.000 0.800 125.000
v 88.000 5.800 125.000
v 89.000 0.800 125.268
v 89.000 5.800 125.268
v 89.732 0.800 126.000
v 89.732 5.800 126.000
v 91.200 5.800 127.000
v 91.200 7.000 127.000
v 90.771 5.800 128.600
v 90.771 7.000 128.600
v 89.600 5.800 129.771
v 89.600 7.000 129.771
v 88.000 5.800 130.200
v 88.000 7.000 130.200
v 86.400 5.800 129.771
v 86.400 7.000 129.771
v 85.229 5.800 128.600
v 85.229 7.000 128.600
v 84.800 5.800 127.000
v 84.800 7.000 127.000
v 85.229 5.800 125.400
v 85.229 7.000 125.400
v 86.400 5.800 124.229
v 86.400 7.000 124.229
v 88.000 5.800 123.800
v 88.000 7.000 123.800
v 89.600 5.800 124.229
v 89.600 7.000 124.229
v 90.771 5.800 125.400
v 90.771 7.000 125.400
v 18.000 0.800 140.000
v 18.000 5.800 140.000
v 17.732 0.800 141.000
v 17.732 5.800 141.000
v 17.000 0.800 141.732
v 17.000 5.800 141.732
v 16.000 0.800 142.000
v 16.000 5.800 142.000
v 15.000 0.800 141.732
v 15.000 5.800 141.732
v 14.268 0.800 141.000
v 14.268 5.800 141.000
v 14.000 0.800 140.000
v 14.000 5.800 140.000
v 14.268 0.800 139.000
v 14.268 5.800 139.000
v 15.000 0.800 138.268
v 15.000 5.800 138.268
v 16.000 0.800 138.000
v 16.000 5.800 138.000
v 17.000 0.800 138.268
v 17.000 5.800 138.268
v 17.732 0.800 139.000
v 17.732 5.800 139.000
v 19.200 5.800 140.000
v 19.200 7.000 140.000
v 18.771 5.800 141.600
v 18.771 7.000 141.600
v 17.600 5.800 142.771
v 17.600 7.000 142.771
v 16.000 5.800 143.200
v 16.000 7.000 143.200
v 14.400 5.800 142.771
v 14.400 7.000 142.771
v 13.229 5.800 141.600
v 13.229 7.000 141.600
v 12.800 5.800 140.000
v 12.800 7.000 140.000
v 13.229 5.800 138.400
v 13.229 7.000 138.400
v 14.400 5.800 137.229
v 14.400 7.000 137.229
v 16.000 5.800 136.800
v 16.000 7.000 136.800
v 17.600 5.800 137.229
v 17.600 7.000 137.229
v 18.771 5.800 138.400
v 18.771 7.000 138.400
v 94.000 0.800 140.000
v 94.000 5.800 140.000
v 93.732 0.800 141.000
v 93.732 5.800 141.000
v 93.000 0.800 141.732
v 93.000 5.800 141.732
v 92.000 0.800 142.000
v 92.000 5.800 142.000
v 91.000 0.800 141.732
v 91.000 5.800 141.732
v 90.268 0.800 141.000
v 90.268 5.800 141.000
v 90.000 0.800 140.000
v 90.000 5.800 140.000
v 90.268 0.800 139.000
v 90.268 5.800 139.000
v 91.000 0.800 138.268
v 91.000 5.800 138.268
v 92.000 0.800 138.000
v 92.000 5.800 138.000
v 93.000 0.800 138.268
v 93.000 5.800 138.268
v 93.732 0.800 139.000
v 93.732 5.800 139.000
v 95.200 5.800 140.000
v 95.200 7.000 140.000
v 94.771 5.800 141.600
v 94.771 7.000 141.600
v 93.600 5.800 142.771
v 93.600 7.000 142.771
v 92.000 5.800 143.200
v 92.000 7.000 143.200
v 90.400 5.800 142.771
v 90.400 7.000 142.771
v 89.229 5.800 141.600
v 89.229 7.000 141.600
v 88.800 5.800 140.000
v 88.800 7.000 140.000
v 89.229 5.800 138.400
v 89.229 7.000 138.400
v 90.400 5.800 137.229
v 90.400 7.000 137.229
v 92.000 5.800 136.800
v 92.000 7.000 136.800
v 93.600 5.800 137.229
v 93.600 7.000 137.229
v 94.771 5.800 138.400
v 94.771 7.000 138.400
v 36.000 0.800 20.000
v 36.000 5.800 20.000
v 35.732 0.800 21.000
v 35.732 5.800 21.000
v 35.000 0.800 21.732
v 35.000 5.800 21.732
v 34.000 0.800 22.000
v 34.000 5.800 22.000
v 33.000 0.800 21.732
v 33.000 5.800 21.732
v 32.268 0.800 21.000
v 32.268 5.800 21.000
v 32.000 0.800 20.000
v 32.000 5.800 20.000
v 32.268 0.800 19.000
v 32.268 5.800 19.000
v 33.000 0.800 18.268
v 33.000 5.800 18.268
v 34.000 0.800 18.000
v 34.000 5.800 18.000
v 35.000 0.800 18.268
v 35.000 5.800 18.268
v 35.732 0.800 19.000
v 35.732 5.800 19.000
v 37.200 5.800 20.000
v 37.200 7.000 20.000
v 36.771 5.800 21.600
v 36.771 7.000 21.600
v 35.600 5.800 22.771
v 35.600 7.000 22.771
v 34.000 5.800 23.200
v 34.000 7.000 23.200
v 32.400 5.800 22.771
v 32.400 7.000 22.771
v 31.229 5.800 21.600
v 31.229 7.000 21.600
v 30.800 5.800 20.000
v 30.800 7.000 20.000
v 31.229 5.800 18.400
v 31.229 7.000 18.400
v 32.400 5.800 17.229
v 32.400 7.000 17.229
v 34.000 5.800 16.800
v 34.000 7.000 16.800
v 35.600 5.800 17.229
v 35.600 7.000 17.229
v 36.771 5.800 18.400
v 36.771 7.000 18.400
v 78.000 0.800 35.000
v 78.000 5.800 35.000
v 77.732 0.800 36.000
v 77.732 5.800 36.000
v 77.000 0.800 36.732
v 77.000 5.800 36.732
v 76.000 0.800 37.000
v 76.000 5.800 37.000
v 75.000 0.800 36.732
v 75.000 5.800 36.732
v 74.268 0.800 36.000
v 74.268 5.800 36.000
v 74.000 0.800 35.000
v 74.000 5.800 35.000
v 74.268 0.800 34.000
v 74.268 5.800 34.000
v 75.000 0.800 33.268
v 75.000 5.800 33.268
v 76.000 0.800 33.000
v 76.000 5.800 33.000
v 77.000 0.800 33.268
v 77.000 5.800 33.268
v 77.732 0.800 34.000
v 77.732 5.800 34.000
v 79.200 5.800 35.000
v 79.200 7.000 35.000
v 78.771 5.800 36.600
v 78.771 7.000 36.600
v 77.600 5.800 37.771
v 77.600 7.000 37.771
v 76.000 5.800 38.200
v 76.000 7.000 38.200
v 74.400 5.800 37.771
v 74.400 7.000 37.771
v 73.229 5.800 36.600
v 73.229 7.000 36.600
v 72.800 5.800 35.000
v 72.800 7.000 35.000
v 73.229 5.800 33.400
v 73.229 7.000 33.400
v 74.400 5.800 32.229
v 74.400 7.000 32.229
v 76.000 5.800 31.800
v 76.000 7.000 31.800
v 77.600 5.800 32.229
v 77.600 7.000 32.229
v 78.771 5.800 33.400
v 78.771 7.000 33.400
v 32.000 0.800 88.000
v 32.000 5.800 88.000
v 31.732 0.800 89.000
v 31.732 5.800 89.000
v 31.000 0.800 89.732
v 31.000 5.800 89.732
v 30.000 0.800 90.000
v 30.000 5.800 90.000
v 29.000 0.800 89.732
v 29.000 5.800 89.732
v 28.268 0.800 89.000
v 28.268 5.800 89.000
v 28.000 0.800 88.000
v 28.000 5.800 88.000
v 28.268 0.800 87.000
v 28.268 5.800 87.000
v 29.000 0.800 86.268
v 29.000 5.800 86.268
v 30.000 0.800 86.000
v 30.000 5.800 86.000
v 31.000 0.800 86.268
v 31.000 5.800 86.268
v 31.732 0.800 87.000
v 31.732 5.800 87.000
v 33.200 5.800 88.000
v 33.200 7.000 88.000
v 32.771 5.800 89.600
v 32.771 7.000 89.600
v 31.600 5.800 90.771
v 31.600 7.000 90.771
v 30.000 5.800 91.200
v 30.000 7.000 91.200
v 28.400 5.800 90.771
v 28.400 7.000 90.771
v 27.229 5.800 89.600
v 27.229 7.000 89.600
v 26.800 5.800 88.000
v 26.800 7.000 88.000
v 27.229 5.800 86.400
v 27.229 7.000 86.400
v 28.400 5.800 85.229
v 28.400 7.000 85.229
v 30.000 5.800 84.800
v 30.000 7.000 84.800
v 31.600 5.800 85.229
v 31.600 7.000 85.229
v 32.771 5.800 86.400
v 32.771 7.000 86.400
g ZoneGround
usemtl JungleGround
f 1 2 3 4
f 5 8 7 6
f 1 5 6 2
f 2 6 7 3
f 3 7 8 4
f 4 8 5 1
g ZoneGround
usemtl JungleGround
f 9 10 11 12
f 13 16 15 14
f 9 13 14 10
f 10 14 15 11
f 11 15 16 12
f 12 16 13 9
g ZoneGround
usemtl JungleGround
f 17 18 19 20
f 21 24 23 22
f 17 21 22 18
f 18 22 23 19
f 19 23 24 20
f 20 24 21 17
g ZoneGround
usemtl JungleGround
f 25 26 27 28
f 29 32 31 30
f 25 29 30 26
f 26 30 31 27
f 27 31 32 28
f 28 32 29 25
g ZoneGround
usemtl JungleGround
f 33 34 35 36
f 37 40 39 38
f 33 37 38 34
f 34 38 39 35
f 35 39 40 36
f 36 40 37 33
g MainRoute
usemtl Route
f 41 42 43 44
f 45 46 47 48
f 49 50 51 52
f 53 54 55 56
f 57 58 59 60
f 61 62 63 64
f 65 66 67 68
f 69 70 71 72
f 73 74 75 76
f 77 78 79 80
f 81 82 83 84
f 85 86 87 88
f 89 90 91 92
f 93 94 95 96
g MistRiver
usemtl Water
f 97 98 99 100
f 101 102 103 104
f 105 106 107 108
f 109 110 111 112
f 113 114 115 116
f 117 118 119 120
f 121 122 123 124
f 125 126 127 128
g WaterfallBridge
usemtl Bridge
f 129 130 131 132
f 133 136 135 134
f 129 133 134 130
f 130 134 135 131
f 131 135 136 132
f 132 136 133 129
g WaterfallBridge
usemtl Bridge
f 137 138 139 140
f 141 144 143 142
f 137 141 142 138
f 138 142 143 139
f 139 143 144 140
f 140 144 141 137
g FallenHomeTemple
usemtl Temple
f 145 146 147 148
f 149 152 151 150
f 145 149 150 146
f 146 150 151 147
f 147 151 152 148
f 148 152 149 145
g SisterTempleGate
usemtl Temple
f 153 154 155 156
f 157 160 159 158
f 153 157 158 154
f 154 158 159 155
f 155 159 160 156
f 156 160 157 153
g TempleGatePillar
usemtl Stone
f 161 162 163 164
f 165 168 167 166
f 161 165 166 162
f 162 166 167 163
f 163 167 168 164
f 164 168 165 161
g TempleGatePillar
usemtl Stone
f 169 170 171 172
f 173 176 175 174
f 169 173 174 170
f 170 174 175 171
f 171 175 176 172
f 172 176 173 169
g TempleGatePillar
usemtl Stone
f 177 178 179 180
f 181 184 183 182
f 177 181 182 178
f 178 182 183 179
f 179 183 184 180
f 180 184 181 177
g TempleGatePillar
usemtl Stone
f 185 186 187 188
f 189 192 191 190
f 185 189 190 186
f 186 190 191 187
f 187 191 192 188
f 188 192 189 185
g TempleGatePillar
usemtl Stone
f 193 194 195 196
f 197 200 199 198
f 193 197 198 194
f 194 198 199 195
f 195 199 200 196
f 196 200 197 193
g TempleGatePillar
usemtl Stone
f 201 202 203 204
f 205 208 207 206
f 201 205 206 202
f 202 206 207 203
f 203 207 208 204
f 204 208 205 201
g TempleGatePillar
usemtl Stone
f 209 210 211 212
f 213 216 215 214
f 209 213 214 210
f 210 214 215 211
f 211 215 216 212
f 212 216 213 209
g RuinedShrine
usemtl Shrine
f 217 218 219 220
f 221 224 223 222
f 217 221 222 218
f 218 222 223 219
f 219 223 224 220
f 220 224 221 217
g ShrinePillar
usemtl Shrine
f 225 227 228 226
f 227 229 230 228
f 229 231 232 230
f 231 233 234 232
f 233 235 236 234
f 235 237 238 236
f 237 239 240 238
f 239 241 242 240
f 241 243 244 242
f 243 245 246 244
f 245 247 248 246
f 247 225 226 248
f 247 245 243 241 239 237 235 233 231 229 227 225
f 226 228 230 232 234 236 238 240 242 244 246 248
g Checkpoint_1
usemtl Checkpoint
f 249 251 252 250
f 251 253 254 252
f 253 255 256 254
f 255 257 258 256
f 257 259 260 258
f 259 261 262 260
f 261 263 264 262
f 263 265 266 264
f 265 267 268 266
f 267 269 270 268
f 269 271 272 270
f 271 249 250 272
f 271 269 267 265 263 261 259 257 255 253 251 249
f 250 252 254 256 258 260 262 264 266 268 270 272
g CheckpointRing_1
usemtl Checkpoint
f 273 275 276 274
f 275 277 278 276
f 277 279 280 278
f 279 281 282 280
f 281 283 284 282
f 283 285 286 284
f 285 287 288 286
f 287 289 290 288
f 289 291 292 290
f 291 293 294 292
f 293 295 296 294
f 295 273 274 296
f 295 293 291 289 287 285 283 281 279 277 275 273
f 274 276 278 280 282 284 286 288 290 292 294 296
g Checkpoint_2
usemtl Checkpoint
f 297 299 300 298
f 299 301 302 300
f 301 303 304 302
f 303 305 306 304
f 305 307 308 306
f 307 309 310 308
f 309 311 312 310
f 311 313 314 312
f 313 315 316 314
f 315 317 318 316
f 317 319 320 318
f 319 297 298 320
f 319 317 315 313 311 309 307 305 303 301 299 297
f 298 300 302 304 306 308 310 312 314 316 318 320
g CheckpointRing_2
usemtl Checkpoint
f 321 323 324 322
f 323 325 326 324
f 325 327 328 326
f 327 329 330 328
f 329 331 332 330
f 331 333 334 332
f 333 335 336 334
f 335 337 338 336
f 337 339 340 338
f 339 341 342 340
f 341 343 344 342
f 343 321 322 344
f 343 341 339 337 335 333 331 329 327 325 323 321
f 322 324 326 328 330 332 334 336 338 340 342 344
g Checkpoint_3
usemtl Checkpoint
f 345 347 348 346
f 347 349 350 348
f 349 351 352 350
f 351 353 354 352
f 353 355 356 354
f 355 357 358 356
f 357 359 360 358
f 359 361 362 360
f 361 363 364 362
f 363 365 366 364
f 365 367 368 366
f 367 345 346 368
f 367 365 363 361 359 357 355 353 351 349 347 345
f 346 348 350 352 354 356 358 360 362 364 366 368
g CheckpointRing_3
usemtl Checkpoint
f 369 371 372 370
f 371 373 374 372
f 373 375 376 374
f 375 377 378 376
f 377 379 380 378
f 379 381 382 380
f 381 383 384 382
f 383 385 386 384
f 385 387 388 386
f 387 389 390 388
f 389 391 392 390
f 391 369 370 392
f 391 389 387 385 383 381 379 377 375 373 371 369
f 370 372 374 376 378 380 382 384 386 388 390 392
g SpikePit_1
usemtl Trap
f 393 394 395 396
f 397 400 399 398
f 393 397 398 394
f 394 398 399 395
f 395 399 400 396
f 396 400 397 393
g SpikePit_2
usemtl Trap
f 401 402 403 404
f 405 408 407 406
f 401 405 406 402
f 402 406 407 403
f 403 407 408 404
f 404 408 405 401
g SpikePit_3
usemtl Trap
f 409 410 411 412
f 413 416 415 414
f 409 413 414 410
f 410 414 415 411
f 411 415 416 412
f 412 416 413 409
g TripwirePost_1L
usemtl Trap
f 417 419 420 418
f 419 421 422 420
f 421 423 424 422
f 423 425 426 424
f 425 427 428 426
f 427 429 430 428
f 429 431 432 430
f 431 433 434 432
f 433 435 436 434
f 435 437 438 436
f 437 439 440 438
f 439 417 418 440
f 439 437 435 433 431 429 427 425 423 421 419 417
f 418 420 422 424 426 428 430 432 434 436 438 440
g TripwirePost_1R
usemtl Trap
f 441 443 444 442
f 443 445 446 444
f 445 447 448 446
f 447 449 450 448
f 449 451 452 450
f 451 453 454 452
f 453 455 456 454
f 455 457 458 456
f 457 459 460 458
f 459 461 462 460
f 461 463 464 462
f 463 441 442 464
f 463 461 459 457 455 453 451 449 447 445 443 441
f 442 444 446 448 450 452 454 456 458 460 462 464
g TripwirePost_2L
usemtl Trap
f 465 467 468 466
f 467 469 470 468
f 469 471 472 470
f 471 473 474 472
f 473 475 476 474
f 475 477 478 476
f 477 479 480 478
f 479 481 482 480
f 481 483 484 482
f 483 485 486 484
f 485 487 488 486
f 487 465 466 488
f 487 485 483 481 479 477 475 473 471 469 467 465
f 466 468 470 472 474 476 478 480 482 484 486 488
g TripwirePost_2R
usemtl Trap
f 489 491 492 490
f 491 493 494 492
f 493 495 496 494
f 495 497 498 496
f 497 499 500 498
f 499 501 502 500
f 501 503 504 502
f 503 505 506 504
f 505 507 508 506
f 507 509 510 508
f 509 511 512 510
f 511 489 490 512
f 511 509 507 505 503 501 499 497 495 493 491 489
f 490 492 494 496 498 500 502 504 506 508 510 512
g TripwirePost_3L
usemtl Trap
f 513 515 516 514
f 515 517 518 516
f 517 519 520 518
f 519 521 522 520
f 521 523 524 522
f 523 525 526 524
f 525 527 528 526
f 527 529 530 528
f 529 531 532 530
f 531 533 534 532
f 533 535 536 534
f 535 513 514 536
f 535 533 531 529 527 525 523 521 519 517 515 513
f 514 516 518 520 522 524 526 528 530 532 534 536
g TripwirePost_3R
usemtl Trap
f 537 539 540 538
f 539 541 542 540
f 541 543 544 542
f 543 545 546 544
f 545 547 548 546
f 547 549 550 548
f 549 551 552 550
f 551 553 554 552
f 553 555 556 554
f 555 557 558 556
f 557 559 560 558
f 559 537 538 560
f 559 557 555 553 551 549 547 545 543 541 539 537
f 538 540 542 544 546 548 550 552 554 556 558 560
g Deadfall_1
usemtl Trap
f 561 562 563 564
f 565 568 567 566
f 561 565 566 562
f 562 566 567 563
f 563 567 568 564
f 564 568 565 561
g Deadfall_2
usemtl Trap
f 569 570 571 572
f 573 576 575 574
f 569 573 574 570
f 570 574 575 571
f 571 575 576 572
f 572 576 573 569
g RivalNinjaArena
usemtl Boss
f 577 578 579 580
f 581 584 583 582
f 577 581 582 578
f 578 582 583 579
f 579 583 584 580
f 580 584 581 577
g BossSpawn
usemtl Boss
f 585 587 588 586
f 587 589 590 588
f 589 591 592 590
f 591 593 594 592
f 593 595 596 594
f 595 597 598 596
f 597 599 600 598
f 599 601 602 600
f 601 603 604 602
f 603 605 606 604
f 605 607 608 606
f 607 585 586 608
f 607 605 603 601 599 597 595 593 591 589 587 585
f 586 588 590 592 594 596 598 600 602 604 606 608
g JungleFoliage
usemtl Foliage
f 609 611 612 610
f 611 613 614 612
f 613 615 616 614
f 615 617 618 616
f 617 619 620 618
f 619 621 622 620
f 621 623 624 622
f 623 625 626 624
f 625 627 628 626
f 627 629 630 628
f 629 631 632 630
f 631 609 610 632
f 631 629 627 625 623 621 619 617 615 613 611 609
f 610 612 614 616 618 620 622 624 626 628 630 632
g Canopy
usemtl Foliage
f 633 635 636 634
f 635 637 638 636
f 637 639 640 638
f 639 641 642 640
f 641 643 644 642
f 643 645 646 644
f 645 647 648 646
f 647 649 650 648
f 649 651 652 650
f 651 653 654 652
f 653 655 656 654
f 655 633 634 656
f 655 653 651 649 647 645 643 641 639 637 635 633
f 634 636 638 640 642 644 646 648 650 652 654 656
g JungleFoliage
usemtl Foliage
f 657 659 660 658
f 659 661 662 660
f 661 663 664 662
f 663 665 666 664
f 665 667 668 666
f 667 669 670 668
f 669 671 672 670
f 671 673 674 672
f 673 675 676 674
f 675 677 678 676
f 677 679 680 678
f 679 657 658 680
f 679 677 675 673 671 669 667 665 663 661 659 657
f 658 660 662 664 666 668 670 672 674 676 678 680
g Canopy
usemtl Foliage
f 681 683 684 682
f 683 685 686 684
f 685 687 688 686
f 687 689 690 688
f 689 691 692 690
f 691 693 694 692
f 693 695 696 694
f 695 697 698 696
f 697 699 700 698
f 699 701 702 700
f 701 703 704 702
f 703 681 682 704
f 703 701 699 697 695 693 691 689 687 685 683 681
f 682 684 686 688 690 692 694 696 698 700 702 704
g JungleFoliage
usemtl Foliage
f 705 707 708 706
f 707 709 710 708
f 709 711 712 710
f 711 713 714 712
f 713 715 716 714
f 715 717 718 716
f 717 719 720 718
f 719 721 722 720
f 721 723 724 722
f 723 725 726 724
f 725 727 728 726
f 727 705 706 728
f 727 725 723 721 719 717 715 713 711 709 707 705
f 706 708 710 712 714 716 718 720 722 724 726 728
g Canopy
usemtl Foliage
f 729 731 732 730
f 731 733 734 732
f 733 735 736 734
f 735 737 738 736
f 737 739 740 738
f 739 741 742 740
f 741 743 744 742
f 743 745 746 744
f 745 747 748 746
f 747 749 750 748
f 749 751 752 750
f 751 729 730 752
f 751 749 747 745 743 741 739 737 735 733 731 729
f 730 732 734 736 738 740 742 744 746 748 750 752
g JungleFoliage
usemtl Foliage
f 753 755 756 754
f 755 757 758 756
f 757 759 760 758
f 759 761 762 760
f 761 763 764 762
f 763 765 766 764
f 765 767 768 766
f 767 769 770 768
f 769 771 772 770
f 771 773 774 772
f 773 775 776 774
f 775 753 754 776
f 775 773 771 769 767 765 763 761 759 757 755 753
f 754 756 758 760 762 764 766 768 770 772 774 776
g Canopy
usemtl Foliage
f 777 779 780 778
f 779 781 782 780
f 781 783 784 782
f 783 785 786 784
f 785 787 788 786
f 787 789 790 788
f 789 791 792 790
f 791 793 794 792
f 793 795 796 794
f 795 797 798 796
f 797 799 800 798
f 799 777 778 800
f 799 797 795 793 791 789 787 785 783 781 779 777
f 778 780 782 784 786 788 790 792 794 796 798 800
g JungleFoliage
usemtl Foliage
f 801 803 804 802
f 803 805 806 804
f 805 807 808 806
f 807 809 810 808
f 809 811 812 810
f 811 813 814 812
f 813 815 816 814
f 815 817 818 816
f 817 819 820 818
f 819 821 822 820
f 821 823 824 822
f 823 801 802 824
f 823 821 819 817 815 813 811 809 807 805 803 801
f 802 804 806 808 810 812 814 816 818 820 822 824
g Canopy
usemtl Foliage
f 825 827 828 826
f 827 829 830 828
f 829 831 832 830
f 831 833 834 832
f 833 835 836 834
f 835 837 838 836
f 837 839 840 838
f 839 841 842 840
f 841 843 844 842
f 843 845 846 844
f 845 847 848 846
f 847 825 826 848
f 847 845 843 841 839 837 835 833 831 829 827 825
f 826 828 830 832 834 836 838 840 842 844 846 848
g JungleFoliage
usemtl Foliage
f 849 851 852 850
f 851 853 854 852
f 853 855 856 854
f 855 857 858 856
f 857 859 860 858
f 859 861 862 860
f 861 863 864 862
f 863 865 866 864
f 865 867 868 866
f 867 869 870 868
f 869 871 872 870
f 871 849 850 872
f 871 869 867 865 863 861 859 857 855 853 851 849
f 850 852 854 856 858 860 862 864 866 868 870 872
g Canopy
usemtl Foliage
f 873 875 876 874
f 875 877 878 876
f 877 879 880 878
f 879 881 882 880
f 881 883 884 882
f 883 885 886 884
f 885 887 888 886
f 887 889 890 888
f 889 891 892 890
f 891 893 894 892
f 893 895 896 894
f 895 873 874 896
f 895 893 891 889 887 885 883 881 879 877 875 873
f 874 876 878 880 882 884 886 888 890 892 894 896
g JungleFoliage
usemtl Foliage
f 897 899 900 898
f 899 901 902 900
f 901 903 904 902
f 903 905 906 904
f 905 907 908 906
f 907 909 910 908
f 909 911 912 910
f 911 913 914 912
f 913 915 916 914
f 915 917 918 916
f 917 919 920 918
f 919 897 898 920
f 919 917 915 913 911 909 907 905 903 901 899 897
f 898 900 902 904 906 908 910 912 914 916 918 920
g Canopy
usemtl Foliage
f 921 923 924 922
f 923 925 926 924
f 925 927 928 926
f 927 929 930 928
f 929 931 932 930
f 931 933 934 932
f 933 935 936 934
f 935 937 938 936
f 937 939 940 938
f 939 941 942 940
f 941 943 944 942
f 943 921 922 944
f 943 941 939 937 935 933 931 929 927 925 923 921
f 922 924 926 928 930 932 934 936 938 940 942 944
g JungleFoliage
usemtl Foliage
f 945 947 948 946
f 947 949 950 948
f 949 951 952 950
f 951 953 954 952
f 953 955 956 954
f 955 957 958 956
f 957 959 960 958
f 959 961 962 960
f 961 963 964 962
f 963 965 966 964
f 965 967 968 966
f 967 945 946 968
f 967 965 963 961 959 957 955 953 951 949 947 945
f 946 948 950 952 954 956 958 960 962 964 966 968
g Canopy
usemtl Foliage
f 969 971 972 970
f 971 973 974 972
f 973 975 976 974
f 975 977 978 976
f 977 979 980 978
f 979 981 982 980
f 981 983 984 982
f 983 985 986 984
f 985 987 988 986
f 987 989 990 988
f 989 991 992 990
f 991 969 970 992
f 991 989 987 985 983 981 979 977 975 973 971 969
f 970 972 974 976 978 980 982 984 986 988 990 992
g JungleFoliage
usemtl Foliage
f 993 995 996 994
f 995 997 998 996
f 997 999 1000 998
f 999 1001 1002 1000
f 1001 1003 1004 1002
f 1003 1005 1006 1004
f 1005 1007 1008 1006
f 1007 1009 1010 1008
f 1009 1011 1012 1010
f 1011 1013 1014 1012
f 1013 1015 1016 1014
f 1015 993 994 1016
f 1015 1013 1011 1009 1007 1005 1003 1001 999 997 995 993
f 994 996 998 1000 1002 1004 1006 1008 1010 1012 1014 1016
g Canopy
usemtl Foliage
f 1017 1019 1020 1018
f 1019 1021 1022 1020
f 1021 1023 1024 1022
f 1023 1025 1026 1024
f 1025 1027 1028 1026
f 1027 1029 1030 1028
f 1029 1031 1032 1030
f 1031 1033 1034 1032
f 1033 1035 1036 1034
f 1035 1037 1038 1036
f 1037 1039 1040 1038
f 1039 1017 1018 1040
f 1039 1037 1035 1033 1031 1029 1027 1025 1023 1021 1019 1017
f 1018 1020 1022 1024 1026 1028 1030 1032 1034 1036 1038 1040
g JungleFoliage
usemtl Foliage
f 1041 1043 1044 1042
f 1043 1045 1046 1044
f 1045 1047 1048 1046
f 1047 1049 1050 1048
f 1049 1051 1052 1050
f 1051 1053 1054 1052
f 1053 1055 1056 1054
f 1055 1057 1058 1056
f 1057 1059 1060 1058
f 1059 1061 1062 1060
f 1061 1063 1064 1062
f 1063 1041 1042 1064
f 1063 1061 1059 1057 1055 1053 1051 1049 1047 1045 1043 1041
f 1042 1044 1046 1048 1050 1052 1054 1056 1058 1060 1062 1064
g Canopy
usemtl Foliage
f 1065 1067 1068 1066
f 1067 1069 1070 1068
f 1069 1071 1072 1070
f 1071 1073 1074 1072
f 1073 1075 1076 1074
f 1075 1077 1078 1076
f 1077 1079 1080 1078
f 1079 1081 1082 1080
f 1081 1083 1084 1082
f 1083 1085 1086 1084
f 1085 1087 1088 1086
f 1087 1065 1066 1088
f 1087 1085 1083 1081 1079 1077 1075 1073 1071 1069 1067 1065
f 1066 1068 1070 1072 1074 1076 1078 1080 1082 1084 1086 1088
g JungleFoliage
usemtl Foliage
f 1089 1091 1092 1090
f 1091 1093 1094 1092
f 1093 1095 1096 1094
f 1095 1097 1098 1096
f 1097 1099 1100 1098
f 1099 1101 1102 1100
f 1101 1103 1104 1102
f 1103 1105 1106 1104
f 1105 1107 1108 1106
f 1107 1109 1110 1108
f 1109 1111 1112 1110
f 1111 1089 1090 1112
f 1111 1109 1107 1105 1103 1101 1099 1097 1095 1093 1091 1089
f 1090 1092 1094 1096 1098 1100 1102 1104 1106 1108 1110 1112
g Canopy
usemtl Foliage
f 1113 1115 1116 1114
f 1115 1117 1118 1116
f 1117 1119 1120 1118
f 1119 1121 1122 1120
f 1121 1123 1124 1122
f 1123 1125 1126 1124
f 1125 1127 1128 1126
f 1127 1129 1130 1128
f 1129 1131 1132 1130
f 1131 1133 1134 1132
f 1133 1135 1136 1134
f 1135 1113 1114 1136
f 1135 1133 1131 1129 1127 1125 1123 1121 1119 1117 1115 1113
f 1114 1116 1118 1120 1122 1124 1126 1128 1130 1132 1134 1136
g JungleFoliage
usemtl Foliage
f 1137 1139 1140 1138
f 1139 1141 1142 1140
f 1141 1143 1144 1142
f 1143 1145 1146 1144
f 1145 1147 1148 1146
f 1147 1149 1150 1148
f 1149 1151 1152 1150
f 1151 1153 1154 1152
f 1153 1155 1156 1154
f 1155 1157 1158 1156
f 1157 1159 1160 1158
f 1159 1137 1138 1160
f 1159 1157 1155 1153 1151 1149 1147 1145 1143 1141 1139 1137
f 1138 1140 1142 1144 1146 1148 1150 1152 1154 1156 1158 1160
g Canopy
usemtl Foliage
f 1161 1163 1164 1162
f 1163 1165 1166 1164
f 1165 1167 1168 1166
f 1167 1169 1170 1168
f 1169 1171 1172 1170
f 1171 1173 1174 1172
f 1173 1175 1176 1174
f 1175 1177 1178 1176
f 1177 1179 1180 1178
f 1179 1181 1182 1180
f 1181 1183 1184 1182
f 1183 1161 1162 1184
f 1183 1181 1179 1177 1175 1173 1171 1169 1167 1165 1163 1161
f 1162 1164 1166 1168 1170 1172 1174 1176 1178 1180 1182 1184
g JungleFoliage
usemtl Foliage
f 1185 1187 1188 1186
f 1187 1189 1190 1188
f 1189 1191 1192 1190
f 1191 1193 1194 1192
f 1193 1195 1196 1194
f 1195 1197 1198 1196
f 1197 1199 1200 1198
f 1199 1201 1202 1200
f 1201 1203 1204 1202
f 1203 1205 1206 1204
f 1205 1207 1208 1206
f 1207 1185 1186 1208
f 1207 1205 1203 1201 1199 1197 1195 1193 1191 1189 1187 1185
f 1186 1188 1190 1192 1194 1196 1198 1200 1202 1204 1206 1208
g Canopy
usemtl Foliage
f 1209 1211 1212 1210
f 1211 1213 1214 1212
f 1213 1215 1216 1214
f 1215 1217 1218 1216
f 1217 1219 1220 1218
f 1219 1221 1222 1220
f 1221 1223 1224 1222
f 1223 1225 1226 1224
f 1225 1227 1228 1226
f 1227 1229 1230 1228
f 1229 1231 1232 1230
f 1231 1209 1210 1232
f 1231 1229 1227 1225 1223 1221 1219 1217 1215 1213 1211 1209
f 1210 1212 1214 1216 1218 1220 1222 1224 1226 1228 1230 1232
g JungleFoliage
usemtl Foliage
f 1233 1235 1236 1234
f 1235 1237 1238 1236
f 1237 1239 1240 1238
f 1239 1241 1242 1240
f 1241 1243 1244 1242
f 1243 1245 1246 1244
f 1245 1247 1248 1246
f 1247 1249 1250 1248
f 1249 1251 1252 1250
f 1251 1253 1254 1252
f 1253 1255 1256 1254
f 1255 1233 1234 1256
f 1255 1253 1251 1249 1247 1245 1243 1241 1239 1237 1235 1233
f 1234 1236 1238 1240 1242 1244 1246 1248 1250 1252 1254 1256
g Canopy
usemtl Foliage
f 1257 1259 1260 1258
f 1259 1261 1262 1260
f 1261 1263 1264 1262
f 1263 1265 1266 1264
f 1265 1267 1268 1266
f 1267 1269 1270 1268
f 1269 1271 1272 1270
f 1271 1273 1274 1272
f 1273 1275 1276 1274
f 1275 1277 1278 1276
f 1277 1279 1280 1278
f 1279 1257 1258 1280
f 1279 1277 1275 1273 1271 1269 1267 1265 1263 1261 1259 1257
f 1258 1260 1262 1264 1266 1268 1270 1272 1274 1276 1278 1280
